{
  "accessors": [
    {
      "bufferView": 2,
      "componentType": 5126,
      "count": 1965,
      "max": [
        6.6700243949890137,
        7.1198921203613281,
        203.94068908691406
      ],
      "min": [
        -6.7503204345703125,
        -6.8597664833068848,
        -21.370473861694336
      ],
      "type": "VEC3"
    },
    {
      "bufferView": 2,
      "byteOffset": 23580,
      "componentType": 5126,
      "count": 1965,
      "max": [
        0.99977350234985352,
        0.99619477987289429,
        1
      ],
      "min": [
        -0.99958086013793945,
        -0.99976211786270142,
        -1
      ],
      "type": "VEC3"
    },
    {
      "bufferView": 3,
      "componentType": 5126,
      "count": 1965,
      "max": [
        0.99839138984680176,
        0.99991351366043091,
        1,
        1
      ],
      "min": [
        -1,
        -0.99837154150009155,
        -0.99285411834716797,
        -1
      ],
      "type": "VEC4"
    },
    {
      "bufferView": 1,
      "componentType": 5126,
      "count": 1965,
      "max": [
        0.99287980794906616,
        0.99470865726470947
      ],
      "min": [
        0.013356145471334457,
        0.0090307295322418213
      ],
      "type": "VEC2"
    },
    {
      "bufferView": 0,
      "componentType": 5125,
      "count": 7308,
      "max": [
        1964
      ],
      "min": [
        0
      ],
      "type": "SCALAR"
    }
  ],
  "asset": {
    "extras": {
      "author": "beyondmatter (https://sketchfab.com/beyondmatter)",
      "license": "CC-BY-4.0 (http://creativecommons.org/licenses/by/4.0/)",
      "source": "https://sketchfab.com/models/824c3488aa25429a964ed337e58cdd38",
      "title": "Overwatch - Hanzo's Arrow"
    },
    "generator": "Sketchfab-3.19.6",
    "version": "2.0"
  },
  "bufferViews": [
    {
      "buffer": 0,
      "byteLength": 29232,
      "byteOffset": 0,
      "name": "floatBufferViews",
      "target": 34963
    },
    {
      "buffer": 0,
      "byteLength": 15720,
      "byteOffset": 29232,
      "byteStride": 8,
      "name": "floatBufferViews",
      "target": 34962
    },
    {
      "buffer": 0,
      "byteLength": 47160,
      "byteOffset": 44952,
      "byteStride": 12,
      "name": "floatBufferViews",
      "target": 34962
    },
    {
      "buffer": 0,
      "byteLength": 31440,
      "byteOffset": 92112,
      "byteStride": 16,
      "name": "floatBufferViews",
      "target": 34962
    }
  ],
  "buffers": [
    {
      "byteLength": 123552,
      "uri": "scene.bin"
    }
  ],
  "images": [
    {
      "uri": "textures/RootNode_baseColor.png"
    },
    {
      "uri": "textures/RootNode_normal.png"
    },
    {
      "uri": "textures/RootNode_metallicRoughness.png"
    },
    {
      "uri": "textures/RootNode_emissive.png"
    }
  ],
  "materials": [
    {
      "doubleSided": true,
      "emissiveFactor": [
        1,
        1,
        1
      ],
      "emissiveTexture": {
        "index": 3,
        "texCoord": 0
      },
      "name": "RootNode",
      "normalTexture": {
        "index": 1,
        "scale": 1,
        "texCoord": 0
      },
      "pbrMetallicRoughness": {
        "baseColorFactor": [
          1,
          1,
          1,
          1
        ],
        "baseColorTexture": {
          "index": 0,
          "texCoord": 0
        },
        "metallicFactor": 1,
        "metallicRoughnessTexture": {
          "index": 2,
          "texCoord": 0
        },
        "roughnessFactor": 1
      }
    }
  ],
  "meshes": [
    {
      "name": "hanzo_arrow_LP__0",
      "primitives": [
        {
          "attributes": {
            "NORMAL": 1,
            "POSITION": 0,
            "TANGENT": 2,
            "TEXCOORD_0": 3
          },
          "indices": 4,
          "material": 0,
          "mode": 4
        }
      ]
    }
  ],
  "nodes": [
    {
      "children": [
        1
      ],
      "name": "RootNode (gltf orientation matrix)",
      "rotation": [
        -0.70710678118654746,
        -0,
        -0,
        0.70710678118654757
      ]
    },
    {
      "children": [
        2
      ],
      "name": "RootNode (model correction matrix)"
    },
    {
      "children": [
        3
      ],
      "matrix": [
        1,
        0,
        0,
        0,
        0,
        0,
        1,
        0,
        0,
        -1,
        0,
        0,
        0,
        0,
        0,
        1
      ],
      "name": "1822fcd6b5b24574bec10d1259d4febe.fbx"
    },
    {
      "children": [
        4
      ],
      "name": "RootNode"
    },
    {
      "children": [
        5
      ],
      "matrix": [
        1.4950179094697091e-08,
        0.9396925881148932,
        0.34202023308853202,
        0,
        8.4786658027802275e-08,
        -0.34202023308853224,
        0.93969258811488943,
        0,
        0.99999999999999645,
        1.495017992736436e-08,
        -8.4786658138824578e-08,
        0,
        106.62718200683594,
        -0.29231745004653931,
        0.45599430799484253,
        1
      ],
      "name": "hanzo_arrow_LP"
    },
    {
      "children": [
        6
      ],
      "matrix": [
        1,
        0,
        -0,
        0,
        0,
        1,
        0,
        0,
        0,
        0,
        1,
        0,
        -0.014903537929058075,
        -0.16117025911808014,
        -91.285102844238281,
        1
      ],
      "name": ""
    },
    {
      "mesh": 0,
      "name": "hanzo_arrow_LP__0"
    }
  ],
  "samplers": [
    {
      "magFilter": 9729,
      "minFilter": 9987,
      "wrapS": 10497,
      "wrapT": 10497
    }
  ],
  "scene": 0,
  "scenes": [
    {
      "name": "OSG_Scene",
      "nodes": [
        0
      ]
    }
  ],
  "textures": [
    {
      "sampler": 0,
      "source": 0
    },
    {
      "sampler": 0,
      "source": 1
    },
    {
      "sampler": 0,
      "source": 2
    },
    {
      "sampler": 0,
      "source": 3
    }
  ]
}

